# Blender v2.77 (sub 0) OBJ File: 'OpenGL Texturing.blend'
# www.blender.org
v -1.000000 -1.000000 1.000000
v -1.000000 1.000000 1.000000
v -1.000000 -1.000000 -1.000000
v -1.000000 1.000000 -1.000000
v 1.000000 -1.000000 1.000000
v 1.000000 1.000000 1.000000
v 1.000000 -1.000000 -1.000000
v 1.000000 1.000000 -1.000000
vt 1.0000 1.0000
vt 0.0000 1.0000
vt 0.0000 0.0000
vt 1.0000 1.0000
vt 0.0000 1.0000
vt 0.0000 0.0000
vt 1.0000 1.0000
vt 0.0000 1.0000
vt 0.0000 0.0000
vt 0.0000 1.0000
vt 0.0000 0.0000
vt 1.0000 1.0000
vt 1.0000 1.0000
vt 0.0000 1.0000
vt 0.0000 0.0000
vt 1.0000 0.0000
vt 1.0000 0.0000
vt 1.0000 0.0000
vt 1.0000 0.0000
vt 1.0000 0.0000
vn 0.0000 0.0000 -1.0000
vn -1.0000 0.0000 0.0000
vn 0.0000 1.0000 0.0000
vn 0.0000 -1.0000 0.0000
vn 0.0000 0.0000 1.0000
vn 1.0000 0.0000 0.0000
s off
f 7/1/1 3/2/1 4/3/1
f 3/4/2 1/5/2 2/6/2
f 4/7/3 2/8/3 6/9/3
f 7/1/4 5/10/4 1/11/4
f 1/12/5 5/10/5 6/9/5
f 5/13/6 7/14/6 8/15/6
f 5/13/6 8/15/6 6/16/6
f 7/1/1 4/3/1 8/17/1
f 3/4/2 2/6/2 4/18/2
f 4/7/3 6/9/3 8/17/3
f 7/1/4 1/11/4 3/19/4
f 1/12/5 6/9/5 2/20/5
